<?xml version="1.0" encoding="utf-8"?>
<!-- Generator: Adobe Illustrator 18.1.1, SVG Export Plug-In . SVG Version: 6.00 Build 0)  -->
<!DOCTYPE svg PUBLIC "-//W3C//DTD SVG 1.1//EN" "http://www.w3.org/Graphics/SVG/1.1/DTD/svg11.dtd">
<svg version="1.1" id="Layer_1" xmlns="http://www.w3.org/2000/svg" xmlns:xlink="http://www.w3.org/1999/xlink" x="0px" y="0px"
	 width="30px" height="30px" viewBox="0 0 30 30" enable-background="new 0 0 30 30" xml:space="preserve">
<path fill="#C3C1C3" d="M-135,28c-7.2,0-13-5.8-13-13c0-7.2,5.8-13,13-13s13,5.8,13,13C-122,22.2-127.8,28-135,28z M-135,4
	c-6.1,0-11,4.9-11,11s4.9,11,11,11s11-4.9,11-11S-128.9,4-135,4z"/>
<path fill-rule="evenodd" clip-rule="evenodd" fill="#C3C1C3" d="M-133,21L-133,21h-4l0,0h-2v-1c1.1,0,2-0.9,2-2v-2c0-0.7-0.3-2-2-2
	v-1l6-1v6c0,1.1,0.9,2,2,2v1H-133z M-135,11c-1.1,0-2-0.9-2-2c0-1.1,0.9-2,2-2s2,0.9,2,2C-133,10.1-133.9,11-135,11z"/>
<path fill-rule="evenodd" clip-rule="evenodd" fill="#C3C1C3" d="M-77,21l-2-2l3-4l-3-4l2-2l5,6L-77,21z M-89,21l5-12h3l-5,12H-89z
	 M-93,21l-5-6l5-6l2,2l-3,4l3,4L-93,21z"/>
<g>
	<g>
		<path fill-rule="evenodd" clip-rule="evenodd" fill="#C3C1C3" d="M-45.9,4v4h30V4H-45.9z M-45.9,16h30v-4h-30V16z M-45.9,24h30v-4
			h-30V24z"/>
	</g>
</g>
<g>
	<g>
		<path fill-rule="evenodd" clip-rule="evenodd" fill="#C3C1C3" d="M15,3C8.4,3,3,8.4,3,15c0,6.6,5.4,12,12,12s12-5.4,12-12
			C27,8.4,21.6,3,15,3z M15,24c-5,0-9-4-9-9s4-9,9-9s9,4,9,9S20,24,15,24z M15,8c-3.9,0-7,3.1-7,7s3.1,7,7,7s7-3.1,7-7S18.9,8,15,8z
			 M15,19c-2.2,0-4-1.8-4-4s1.8-4,4-4s4,1.8,4,4S17.2,19,15,19z M15,13c-1.1,0-2,0.9-2,2s0.9,2,2,2s2-0.9,2-2S16.1,13,15,13z"/>
	</g>
</g>
<g>
</g>
<g>
</g>
<g>
</g>
<g>
</g>
<g>
</g>
<g>
</g>
<g>
</g>
<g>
</g>
<g>
</g>
<g>
</g>
<g>
</g>
<g>
</g>
<g>
</g>
<g>
</g>
<g>
</g>
</svg>
