<?xml version="1.0" encoding="utf-8"?>
<!-- Generator: Adobe Illustrator 18.1.1, SVG Export Plug-In . SVG Version: 6.00 Build 0)  -->
<!DOCTYPE svg PUBLIC "-//W3C//DTD SVG 1.1//EN" "http://www.w3.org/Graphics/SVG/1.1/DTD/svg11.dtd">
<svg version="1.1" id="Layer_1" xmlns="http://www.w3.org/2000/svg" xmlns:xlink="http://www.w3.org/1999/xlink" x="0px" y="0px"
	 width="30px" height="30px" viewBox="0 0 30 30" enable-background="new 0 0 30 30" xml:space="preserve">
<g>
	<g>
		<path fill="#C3C1C3" d="M15,3C8.4,3,3,8.4,3,15s5.4,12,12,12s12-5.4,12-12S21.6,3,15,3z M15,24c-5,0-9-4-9-9s4-9,9-9s9,4,9,9
			S20,24,15,24z M15,8c-3.9,0-7,3.1-7,7s3.1,7,7,7s7-3.1,7-7S18.9,8,15,8z M15,19c-2.2,0-4-1.8-4-4s1.8-4,4-4s4,1.8,4,4
			S17.2,19,15,19z M15,13c-1.1,0-2,0.9-2,2s0.9,2,2,2s2-0.9,2-2S16.1,13,15,13z"/>
	</g>
</g>
</svg>
