<?xml version="1.0" encoding="utf-8"?>
<!-- Generator: Adobe Illustrator 18.1.1, SVG Export Plug-In . SVG Version: 6.00 Build 0)  -->
<!DOCTYPE svg PUBLIC "-//W3C//DTD SVG 1.1//EN" "http://www.w3.org/Graphics/SVG/1.1/DTD/svg11.dtd">
<svg version="1.1" id="Layer_1" xmlns="http://www.w3.org/2000/svg" xmlns:xlink="http://www.w3.org/1999/xlink" x="0px" y="0px"
	 width="30px" height="30px" viewBox="50 0 30 30" enable-background="new 50 0 30 30" xml:space="preserve">
<g>
	<path fill="#C3C1C3" d="M65,28c-7.2,0-13-5.8-13-13S57.8,2,65,2s13,5.8,13,13S72.2,28,65,28z M65,4c-6.1,0-11,4.9-11,11
		s4.9,11,11,11s11-4.9,11-11S71.1,4,65,4z"/>
	<path fill="#C3C1C3" d="M67,21L67,21h-4l0,0h-2v-1c1.1,0,2-0.9,2-2v-2c0-0.7-0.3-2-2-2v-1l6-1v6c0,1.1,0.9,2,2,2v1H67z M65,11
		c-1.1,0-2-0.9-2-2s0.9-2,2-2s2,0.9,2,2S66.1,11,65,11z"/>
</g>
</svg>
